<svg xmlns="http://www.w3.org/2000/svg" viewBox="0 0 900 560" role="img" aria-label="贴合压合">
  <rect width="900" height="560" fill="#eef3f8"/>
  <rect x="70" y="80" width="250" height="360" rx="18" fill="#e5e8ee"/>
  <path d="M98 128h190M98 178h150M98 228h180M98 278h120" stroke="#fff" stroke-width="16" stroke-linecap="round" opacity=".78"/>
  <rect x="330" y="86" width="220" height="340" rx="38" fill="#17202a"/><rect x="350" y="108" width="180" height="296" rx="26" fill="#dfe7ef"/><rect x="384" y="134" width="82" height="82" rx="22" fill="#ffffffaa"/><circle cx="410" cy="160" r="13" fill="#17202a"/><circle cx="440" cy="190" r="13" fill="#17202a"/><path d="M372 324l130-120M388 360l92-70" stroke="#cc6a32" stroke-width="10" stroke-linecap="round"/>
  <path d="M610 160h178M610 220h130M610 280h160M610 340h108" stroke="#17202a" stroke-width="14" stroke-linecap="round" opacity=".75"/>
  <text x="70" y="510" font-family="Arial, Microsoft YaHei, sans-serif" font-size="28" font-weight="700" fill="#17202a">贴合压合</text>
  <text x="70" y="542" font-family="Arial, Microsoft YaHei, sans-serif" font-size="20" fill="#657181">涂/贴专用后盖胶，定位新玻璃，均匀压合并等待固化。固化前不要装壳或弯折机身。</text>
</svg>